<?xml version="1.0" encoding="UTF-8"?>
<!DOCTYPE svg PUBLIC "-//W3C//DTD SVG 1.1//EN" "http://www.w3.org/Graphics/SVG/1.1/DTD/svg11.dtd">
<!-- Creator: CorelDRAW X8 -->
<svg xmlns="http://www.w3.org/2000/svg" xml:space="preserve" width="210mm" height="297mm" version="1.1" style="shape-rendering:geometricPrecision; text-rendering:geometricPrecision; image-rendering:optimizeQuality; fill-rule:evenodd; clip-rule:evenodd"
viewBox="0 0 21000 29700"
 xmlns:xlink="http://www.w3.org/1999/xlink">
 <defs>
  <style type="text/css">
   <![CDATA[
    .fil1 {fill:#A1883B}
    .fil0 {fill:#A1883B;fill-rule:nonzero}
   ]]>
  </style>
 </defs>
 <g id="Слой_x0020_1">
  <metadata id="CorelCorpID_0Corel-Layer"/>
  <g id="_2563634069632">
   <path class="fil0" d="M9931 11936l1713 0c98,0 188,40 252,105 65,65 105,154 105,253l0 1713c0,98 -40,187 -105,252 -64,65 -154,105 -252,105l-1713 0c-99,0 -188,-40 -253,-105 -65,-65 -105,-154 -105,-252l0 -1713c0,-99 40,-188 105,-253 65,-65 154,-105 253,-105zm1713 100l-1713 0c-71,0 -136,29 -182,76 -47,46 -76,111 -76,182l0 1713c0,70 29,135 76,182 46,46 111,75 182,75l1713 0c71,0 135,-29 182,-75 46,-47 75,-112 75,-182l0 -1713c0,-71 -29,-136 -75,-182 -47,-47 -111,-76 -182,-76z"/>
   <path class="fil1" d="M10841 12921l0 -87c0,-43 28,-53 48,-53 19,0 123,0 123,0l0 -187 -169 0c-189,0 -231,139 -231,229l0 98 -109 0 0 220 110 0c0,248 0,547 0,547l219 0c0,0 0,-303 0,-547l163 0 7 -87 13 -133 -174 0z"/>
  </g>
  <g id="_2563634068512">
   <path class="fil0" d="M9931 11936l1713 0c98,0 188,40 252,105 65,65 105,154 105,253l0 1713c0,98 -40,187 -105,252 -64,65 -154,105 -252,105l-1713 0c-99,0 -188,-40 -253,-105 -65,-65 -105,-154 -105,-252l0 -1713c0,-99 40,-188 105,-253 65,-65 154,-105 253,-105zm1713 100l-1713 0c-71,0 -136,29 -182,76 -47,46 -76,111 -76,182l0 1713c0,70 29,135 76,182 46,46 111,75 182,75l1713 0c71,0 135,-29 182,-75 46,-47 75,-112 75,-182l0 -1713c0,-71 -29,-136 -75,-182 -47,-47 -111,-76 -182,-76z"/>
   <path class="fil1" d="M10841 12921l0 -87c0,-43 28,-53 48,-53 19,0 123,0 123,0l0 -187 -169 0c-189,0 -231,139 -231,229l0 98 -109 0 0 220 110 0c0,248 0,547 0,547l219 0c0,0 0,-303 0,-547l163 0 7 -87 13 -133 -174 0z"/>
  </g>
 </g>
</svg>
