<?xml version="1.0" encoding="UTF-8"?>
<!DOCTYPE svg PUBLIC "-//W3C//DTD SVG 1.1//EN" "http://www.w3.org/Graphics/SVG/1.1/DTD/svg11.dtd">
<!-- Creator: CorelDRAW X8 -->
<svg xmlns="http://www.w3.org/2000/svg" xml:space="preserve" width="210mm" height="297mm" version="1.1" style="shape-rendering:geometricPrecision; text-rendering:geometricPrecision; image-rendering:optimizeQuality; fill-rule:evenodd; clip-rule:evenodd"
viewBox="0 0 21000 29700"
 xmlns:xlink="http://www.w3.org/1999/xlink">
 <defs>
  <style type="text/css">
   <![CDATA[
    .fil1 {fill:#A1883B}
    .fil0 {fill:#A1883B;fill-rule:nonzero}
   ]]>
  </style>
 </defs>
 <g id="Слой_x0020_1">
  <metadata id="CorelCorpID_0Corel-Layer"/>
  <g id="_2563833690560">
   <path class="fil0" d="M8938 11905l1713 0c98,0 188,40 253,105 65,65 105,155 105,253l0 1713c0,98 -40,188 -105,253 -65,64 -155,105 -253,105l-1713 0c-98,0 -188,-41 -253,-105 -64,-65 -105,-155 -105,-253l0 -1713c0,-98 41,-188 105,-253 65,-65 155,-105 253,-105zm1713 100l-1713 0c-71,0 -135,29 -182,76 -47,47 -76,111 -76,182l0 1713c0,71 29,135 76,182 47,47 111,76 182,76l1713 0c71,0 135,-29 182,-76 47,-47 76,-111 76,-182l0 -1713c0,-71 -29,-135 -76,-182 -47,-47 -111,-76 -182,-76z"/>
   <path class="fil1" d="M10214 13119c0,-231 -188,-419 -420,-419 -231,0 -419,188 -419,419 0,232 188,420 419,420 232,0 420,-188 420,-420l0 0zm-8 -476c-38,0 -68,30 -68,67 0,38 30,68 68,68 37,0 67,-30 67,-68 0,-37 -30,-67 -67,-67l0 0zm-754 -97l686 0c127,0 230,103 230,230l0 686c0,128 -103,231 -230,231l-686 0c-128,0 -231,-103 -231,-231l0 -686c0,-127 103,-230 231,-230l0 0zm686 -77l-686 0c-169,0 -308,138 -308,307l0 686c0,169 139,308 308,308l686 0c169,0 307,-139 307,-308l0 -686c0,-169 -138,-307 -307,-307l0 0zm-676 650c0,-183 149,-333 332,-333 184,0 333,150 333,333 0,184 -149,333 -333,333 -183,0 -332,-149 -332,-333l0 0z"/>
  </g>
  <path class="fil0" d="M8938 11905l1713 0c98,0 188,40 253,105 65,65 105,155 105,253l0 1713c0,98 -40,188 -105,253 -65,64 -155,105 -253,105l-1713 0c-98,0 -188,-41 -253,-105 -64,-65 -105,-155 -105,-253l0 -1713c0,-98 41,-188 105,-253 65,-65 155,-105 253,-105zm1713 100l-1713 0c-71,0 -135,29 -182,76 -47,47 -76,111 -76,182l0 1713c0,71 29,135 76,182 47,47 111,76 182,76l1713 0c71,0 135,-29 182,-76 47,-47 76,-111 76,-182l0 -1713c0,-71 -29,-135 -76,-182 -47,-47 -111,-76 -182,-76z"/>
  <path class="fil1" d="M10214 13119c0,-231 -188,-419 -420,-419 -231,0 -419,188 -419,419 0,232 188,420 419,420 232,0 420,-188 420,-420l0 0zm-8 -476c-38,0 -68,30 -68,67 0,38 30,68 68,68 37,0 67,-30 67,-68 0,-37 -30,-67 -67,-67l0 0zm-754 -97l686 0c127,0 230,103 230,230l0 686c0,128 -103,231 -230,231l-686 0c-128,0 -231,-103 -231,-231l0 -686c0,-127 103,-230 231,-230l0 0zm686 -77l-686 0c-169,0 -308,138 -308,307l0 686c0,169 139,308 308,308l686 0c169,0 307,-139 307,-308l0 -686c0,-169 -138,-307 -307,-307l0 0zm-676 650c0,-183 149,-333 332,-333 184,0 333,150 333,333 0,184 -149,333 -333,333 -183,0 -332,-149 -332,-333l0 0z"/>
 </g>
</svg>
