<?xml version="1.0" encoding="UTF-8"?>
<!DOCTYPE svg PUBLIC "-//W3C//DTD SVG 1.1//EN" "http://www.w3.org/Graphics/SVG/1.1/DTD/svg11.dtd">
<!-- Creator: CorelDRAW X8 -->
<svg xmlns="http://www.w3.org/2000/svg" xml:space="preserve" width="210mm" height="297mm" version="1.1" style="shape-rendering:geometricPrecision; text-rendering:geometricPrecision; image-rendering:optimizeQuality; fill-rule:evenodd; clip-rule:evenodd"
viewBox="0 0 21000 29700"
 xmlns:xlink="http://www.w3.org/1999/xlink">
 <defs>
  <style type="text/css">
   <![CDATA[
    .fil1 {fill:#333333;fill-rule:nonzero}
    .fil3 {fill:#333333;fill-rule:nonzero}
    .fil0 {fill:#F0ECDD;fill-rule:nonzero}
    .fil2 {fill:white;fill-rule:nonzero}
   ]]>
  </style>
 </defs>
 <g id="Слой_x0020_1">
  <metadata id="CorelCorpID_0Corel-Layer"/>
  <path class="fil0" d="M9423 21167c385,0 578,-245 578,-735 0,-472 -193,-708 -578,-708 -367,0 -551,236 -551,708 0,490 184,735 551,735zm1523 683l-972 0 0 -289c-140,228 -376,342 -708,342 -438,0 -775,-149 -1011,-447 -236,-297 -354,-639 -354,-1024 0,-402 113,-743 341,-1023 227,-280 560,-420 997,-420 350,0 604,113 762,341l0 -289 945 0 0 2809zm3097 -2809l-1181 2048 1050 0 0 761 -2546 0 1181 -2048 -1024 0 0 -761 2520 0zm2862 0l-1181 2048 1050 0 0 761 -2547 0 1182 -2048 -1024 0 0 -761 2520 0z"/>
  <path class="fil1" d="M7375 24449c0,735 -358,1103 -1076,1103 -70,0 -140,0 -210,0l0 -841 26 0c193,0 289,-87 289,-262l0 -5434 971 0 0 5434z"/>
  <path class="fil2" d="M6877 10535c297,0 446,-148 446,-446 0,-297 -149,-446 -446,-446 -298,0 -447,149 -447,446 0,298 149,446 447,446z"/>
  <path class="fil1" d="M6877 10614c-350,0 -525,-175 -525,-525 0,-350 175,-525 525,-525 350,0 525,175 525,525 0,350 -175,525 -525,525zm0 -79c297,0 446,-148 446,-446 0,-297 -149,-446 -446,-446 -298,0 -447,149 -447,446 0,298 149,446 447,446z"/>
  <path class="fil2" d="M6877 12373c297,0 446,-149 446,-446 0,-298 -149,-446 -446,-446 -298,0 -447,148 -447,446 0,297 149,446 447,446z"/>
  <path class="fil1" d="M6877 12452c-350,0 -525,-175 -525,-525 0,-350 175,-525 525,-525 350,0 525,175 525,525 0,350 -175,525 -525,525zm0 -79c297,0 446,-149 446,-446 0,-298 -149,-446 -446,-446 -298,0 -447,148 -447,446 0,297 149,446 447,446z"/>
  <path class="fil2" d="M6877 14211c297,0 446,-149 446,-447 0,-297 -149,-446 -446,-446 -298,0 -447,149 -447,446 0,298 149,447 447,447z"/>
  <path class="fil1" d="M6877 14289c-350,0 -525,-175 -525,-525 0,-350 175,-525 525,-525 350,0 525,175 525,525 0,350 -175,525 -525,525zm0 -78c297,0 446,-149 446,-447 0,-297 -149,-446 -446,-446 -298,0 -447,149 -447,446 0,298 149,447 447,447z"/>
  <path class="fil3" d="M6877 16048c297,0 446,-148 446,-446 0,-297 -149,-446 -446,-446 -298,0 -447,149 -447,446 0,298 149,446 447,446z"/>
  <path class="fil1" d="M6877 16127c-350,0 -525,-175 -525,-525 0,-350 175,-525 525,-525 350,0 525,175 525,525 0,350 -175,525 -525,525zm0 -79c297,0 446,-148 446,-446 0,-297 -149,-446 -446,-446 -298,0 -447,149 -447,446 0,298 149,446 447,446z"/>
  <path class="fil2" d="M6877 17886c297,0 446,-149 446,-446 0,-298 -149,-447 -446,-447 -298,0 -447,149 -447,447 0,297 149,446 447,446z"/>
  <path class="fil1" d="M6877 17965c-350,0 -525,-175 -525,-525 0,-350 175,-525 525,-525 350,0 525,175 525,525 0,350 -175,525 -525,525zm0 -79c297,0 446,-149 446,-446 0,-298 -149,-447 -446,-447 -298,0 -447,149 -447,447 0,297 149,446 447,446z"/>
  <path class="fil2" d="M6877 8509c297,0 446,-149 446,-446 0,-298 -149,-447 -446,-447 -298,0 -447,149 -447,447 0,297 149,446 447,446z"/>
  <path class="fil1" d="M6877 8588c-350,0 -525,-175 -525,-525 0,-350 175,-525 525,-525 350,0 525,175 525,525 0,350 -175,525 -525,525zm0 -79c297,0 446,-149 446,-446 0,-298 -149,-447 -446,-447 -298,0 -447,149 -447,447 0,297 149,446 447,446z"/>
 </g>
</svg>
