<?xml version="1.0" encoding="UTF-8"?>
<!DOCTYPE svg PUBLIC "-//W3C//DTD SVG 1.1//EN" "http://www.w3.org/Graphics/SVG/1.1/DTD/svg11.dtd">
<!-- Creator: CorelDRAW X8 -->
<svg xmlns="http://www.w3.org/2000/svg" xml:space="preserve" width="75mm" height="24.3mm" version="1.1" style="shape-rendering:geometricPrecision; text-rendering:geometricPrecision; image-rendering:optimizeQuality; fill-rule:evenodd; clip-rule:evenodd"
viewBox="0 0 7500 2430"
 xmlns:xlink="http://www.w3.org/1999/xlink">
 <defs>
  <style type="text/css">
   <![CDATA[
    .fil0 {fill:black;fill-rule:nonzero}
   ]]>
  </style>
 </defs>
 <g id="Слой_x0020_1">
  <metadata id="CorelCorpID_0Corel-Layer"/>
  <path class="fil0" d="M1268 1815c321,0 481,-204 481,-612 0,-394 -160,-591 -481,-591 -306,0 -459,197 -459,591 0,408 153,612 459,612zm1268 568l-809 0 0 -240c-116,189 -313,284 -590,284 -364,0 -645,-124 -842,-372 -197,-247 -295,-532 -295,-852 0,-336 95,-620 284,-853 190,-233 467,-350 831,-350 292,0 503,95 634,284l0 -240 787 0 0 2339zm2581 -2339l-984 1705 874 0 0 634 -2121 0 984 -1705 -852 0 0 -634 2099 0zm2383 0l-984 1705 875 0 0 634 -2121 0 984 -1705 -853 0 0 -634 2099 0z"/>
 </g>
</svg>
