<?xml version="1.0" encoding="UTF-8"?>
<!DOCTYPE svg PUBLIC "-//W3C//DTD SVG 1.1//EN" "http://www.w3.org/Graphics/SVG/1.1/DTD/svg11.dtd">
<!-- Creator: CorelDRAW X8 -->
<svg xmlns="http://www.w3.org/2000/svg" xml:space="preserve" width="100mm" height="72mm" version="1.1" style="shape-rendering:geometricPrecision; text-rendering:geometricPrecision; image-rendering:optimizeQuality; fill-rule:evenodd; clip-rule:evenodd"
viewBox="0 0 10000 7200"
 xmlns:xlink="http://www.w3.org/1999/xlink"
 enable-background="new 0 0 841.89 595.276">
 <defs>
  <style type="text/css">
   <![CDATA[
    .fil1 {fill:black}
    .fil2 {fill:white}
    .fil0 {fill:black;fill-rule:nonzero}
   ]]>
  </style>
 </defs>
 <g id="Слой_x0020_1">
  <metadata id="CorelCorpID_0Corel-Layer"/>
  <g id="_1906414330528">
   <path id="svg_1" class="fil0" d="M30511 8405c0,1142 -558,1714 -1674,1714 -107,0 -217,0 -326,0l0 -1306 40 0c299,0 449,-136 449,-408l0 -8445 1511 0 0 8445 0 0z"/>
  </g>
  <g id="_1906414330112">
   <g id="_1906349007760">
    <path id="svg_1_0" class="fil0" d="M-36641 36126c0,1302 -636,1954 -1908,1954 -122,0 -247,0 -371,0l0 -1489 46 0c341,0 511,-155 511,-465l0 -9626 1722 0 0 9626 0 0z"/>
   </g>
  </g>
  <g id="_1906414329056">
   <g id="Слой_x0020_1_1">
    <g id="_1906349007760_2">
     <path id="svg_1_3" class="fil1" d="M37877 -1494c0,976 -477,1465 -1431,1465 -91,0 -185,0 -278,0l0 -1116 34 0c256,0 384,-117 384,-349l0 -7220 1291 0 0 7220 0 0z"/>
    </g>
   </g>
  </g>
  <g id="_1906414327616">
   <g id="menu">
    <path class="fil2" d="M9 7178l10000 0 0 -1196 -10000 0 0 1196zm0 -2991l10000 0 0 -1196 -10000 0 0 1196zm0 -4187l0 1196 10000 0 0 -1196 -10000 0z"/>
   </g>
  </g>
  <g id="_1906414327904">
  </g>
  <g id="_1906414326528">
  </g>
  <g id="_1906414326464">
  </g>
  <g id="_1906414326432">
  </g>
  <g id="_1906414326912">
  </g>
  <g id="_1906414326976">
  </g>
  <g id="_1906414324608">
  </g>
  <g id="_1906414324096">
  </g>
  <g id="_1906414325760">
  </g>
  <g id="_1906414326112">
  </g>
  <g id="_1906414324160">
  </g>
  <g id="_1906414325824">
  </g>
  <g id="_1906414325248">
  </g>
  <g id="_1906414324032">
  </g>
  <g id="_1906414323744">
  </g>
 </g>
</svg>
