<?xml version="1.0" encoding="UTF-8"?>
<!DOCTYPE svg PUBLIC "-//W3C//DTD SVG 1.1//EN" "http://www.w3.org/Graphics/SVG/1.1/DTD/svg11.dtd">
<!-- Creator: CorelDRAW X8 -->
<svg xmlns="http://www.w3.org/2000/svg" xml:space="preserve" width="210mm" height="297mm" version="1.1" style="shape-rendering:geometricPrecision; text-rendering:geometricPrecision; image-rendering:optimizeQuality; fill-rule:evenodd; clip-rule:evenodd"
viewBox="0 0 21000 29700"
 xmlns:xlink="http://www.w3.org/1999/xlink">
 <defs>
  <style type="text/css">
   <![CDATA[
    .fil1 {fill:#A1883B}
    .fil0 {fill:#A1883B;fill-rule:nonzero}
   ]]>
  </style>
 </defs>
 <g id="Слой_x0020_1">
  <metadata id="CorelCorpID_0Corel-Layer"/>
  <g id="_2563850788496">
   <path class="fil0" d="M9033 9624l1713 0c98,0 188,40 252,105 65,64 105,154 105,252l0 1713c0,99 -40,188 -105,253 -64,65 -154,105 -252,105l-1713 0c-99,0 -188,-40 -253,-105 -65,-65 -105,-154 -105,-253l0 -1713c0,-98 40,-188 105,-252 65,-65 154,-105 253,-105zm1713 100l-1713 0c-71,0 -135,29 -182,75 -47,47 -76,111 -76,182l0 1713c0,71 29,135 76,182 47,47 111,76 182,76l1713 0c71,0 135,-29 182,-76 46,-47 75,-111 75,-182l0 -1713c0,-71 -29,-135 -75,-182 -47,-46 -111,-75 -182,-75z"/>
   <path class="fil1" d="M10469 10484c-42,18 -88,31 -137,37 50,-29 88,-75 105,-130 -45,27 -97,47 -151,57 -43,-46 -105,-74 -174,-74 -131,0 -238,105 -238,234 0,19 3,36 7,53 -198,-9 -373,-102 -490,-244 -20,35 -33,75 -33,117 0,82 43,154 106,195 -39,0 -76,-11 -108,-29 0,2 0,2 0,4 0,30 6,57 17,84 29,73 95,129 174,144 -20,6 -41,9 -63,9 -15,0 -30,-2 -44,-5 31,93 118,161 222,164 -82,62 -184,100 -295,100 -20,0 -38,-2 -57,-4 105,66 230,105 364,105 372,0 601,-257 661,-524 11,-48 16,-95 16,-141 0,-10 0,-21 0,-31 46,-33 86,-74 118,-121l0 0z"/>
  </g>
  <path class="fil0" d="M9033 9624l1713 0c98,0 188,40 252,105 65,64 105,154 105,252l0 1713c0,99 -40,188 -105,253 -64,65 -154,105 -252,105l-1713 0c-99,0 -188,-40 -253,-105 -65,-65 -105,-154 -105,-253l0 -1713c0,-98 40,-188 105,-252 65,-65 154,-105 253,-105zm1713 100l-1713 0c-71,0 -135,29 -182,75 -47,47 -76,111 -76,182l0 1713c0,71 29,135 76,182 47,47 111,76 182,76l1713 0c71,0 135,-29 182,-76 46,-47 75,-111 75,-182l0 -1713c0,-71 -29,-135 -75,-182 -47,-46 -111,-75 -182,-75z"/>
  <path class="fil1" d="M10469 10484c-42,18 -88,31 -137,37 50,-29 88,-75 105,-130 -45,27 -97,47 -151,57 -43,-46 -105,-74 -174,-74 -131,0 -238,105 -238,234 0,19 3,36 7,53 -198,-9 -373,-102 -490,-244 -20,35 -33,75 -33,117 0,82 43,154 106,195 -39,0 -76,-11 -108,-29 0,2 0,2 0,4 0,30 6,57 17,84 29,73 95,129 174,144 -20,6 -41,9 -63,9 -15,0 -30,-2 -44,-5 31,93 118,161 222,164 -82,62 -184,100 -295,100 -20,0 -38,-2 -57,-4 105,66 230,105 364,105 372,0 601,-257 661,-524 11,-48 16,-95 16,-141 0,-10 0,-21 0,-31 46,-33 86,-74 118,-121l0 0z"/>
 </g>
</svg>
